<?xml version="1.0" standalone="no"?>
<!DOCTYPE svg PUBLIC "-//W3C//DTD SVG 20010904//EN"
 "http://www.w3.org/TR/2001/REC-SVG-20010904/DTD/svg10.dtd">
<svg version="1.0" xmlns="http://www.w3.org/2000/svg"
 width="1315.000000pt" height="578.000000pt" viewBox="0 0 1315.000000 578.000000"
 preserveAspectRatio="xMidYMid meet">

<g transform="translate(0.000000,578.000000) scale(0.100000,-0.100000)" fill="white " stroke="none">
<path d="M3280 3295 l0 -935 130 0 130 0 0 935 0 935 -130 0 -130 0 0 -935z"/>
<path d="M1870 2995 l0 -635 445 0 445 0 0 125 0 125 -310 0 -310 0 2 378 3
377 188 3 187 2 0 -120 0 -120 130 0 130 0 0 250 0 250 -455 0 -455 0 0 -635z"/>
<path d="M4050 2995 l0 -635 455 0 455 0 0 635 0 635 -455 0 -455 0 0 -635z
m650 -5 l0 -380 -190 0 -190 0 0 380 0 380 190 0 190 0 0 -380z"/>
<path d="M5460 2995 l0 -635 130 0 130 0 0 510 0 510 185 0 185 0 0 -510 0
-510 140 0 140 0 0 635 0 635 -455 0 -455 0 0 -635z"/>
<path d="M6870 2995 l0 -635 455 0 455 0 0 125 0 125 -320 0 -320 0 0 120 0
120 315 0 315 0 0 390 0 390 -450 0 -450 0 0 -635z m650 245 l0 -130 -190 0
-190 0 0 130 0 130 190 0 190 0 0 -130z"/>
<path d="M8280 2995 l0 -635 130 0 130 0 0 510 0 510 185 0 185 0 0 -510 0
-510 140 0 140 0 0 510 0 510 180 0 180 0 0 -510 0 -510 135 0 135 0 0 635 0
635 -770 0 -770 0 0 -635z"/>
<path d="M10307 3623 c-4 -3 -7 -289 -7 -635 l0 -628 455 0 455 0 0 635 0 635
-448 0 c-247 0 -452 -3 -455 -7z m643 -633 l0 -380 -185 0 -185 0 0 380 0 380
185 0 185 0 0 -380z"/>
</g>
</svg>
